{
    "patcher": {
        "fileversion": 1,
        "appversion": {
            "major": 9,
            "minor": 1,
            "revision": 2,
            "architecture": "x64",
            "modernui": 1
        },
        "classnamespace": "box",
        "rect": [ 1129.0, 180.0, 1000.0, 780.0 ],
        "openinpresentation": 1,
        "boxes": [
            {
                "box": {
                    "id": "obj-6",
                    "maxclass": "newobj",
                    "numinlets": 1,
                    "numoutlets": 1,
                    "outlettype": [ "" ],
                    "patching_rect": [ 241.0, 103.0, 72.0, 22.0 ],
                    "text": "prepend set"
                }
            },
            {
                "box": {
                    "id": "obj-3",
                    "maxclass": "newobj",
                    "numinlets": 1,
                    "numoutlets": 1,
                    "outlettype": [ "" ],
                    "patching_rect": [ 241.0, 70.0, 77.0, 22.0 ],
                    "text": "loadmess #1"
                }
            },
            {
                "box": {
                    "id": "obj-2",
                    "maxclass": "newobj",
                    "numinlets": 2,
                    "numoutlets": 1,
                    "outlettype": [ "" ],
                    "patching_rect": [ 111.0, 70.0, 73.0, 22.0 ],
                    "text": "speedlim 32"
                }
            },
            {
                "box": {
                    "comment": "",
                    "id": "obj-1",
                    "index": 0,
                    "maxclass": "outlet",
                    "numinlets": 1,
                    "numoutlets": 0,
                    "patching_rect": [ 33.0, 181.0, 30.0, 30.0 ]
                }
            },
            {
                "box": {
                    "id": "obj-20",
                    "maxclass": "newobj",
                    "numinlets": 1,
                    "numoutlets": 1,
                    "outlettype": [ "" ],
                    "patching_rect": [ 111.0, 103.0, 72.0, 22.0 ],
                    "text": "prepend set"
                }
            },
            {
                "box": {
                    "bgcolor": [ 1.0, 1.0, 1.0, 0.8 ],
                    "fontface": 0,
                    "fontname": "Ableton Sans Medium",
                    "fontsize": 12.0,
                    "id": "obj-41",
                    "maxclass": "comment",
                    "numinlets": 1,
                    "numoutlets": 0,
                    "patching_rect": [ 241.0, 135.0, 72.0, 21.0 ],
                    "presentation": 1,
                    "presentation_rect": [ 47.0, 3.0, 124.0, 21.0 ],
                    "text": "#1",
                    "textcolor": [ 0.0, 0.0, 0.0, 1.0 ]
                }
            },
            {
                "box": {
                    "bgcolor": [ 1.0, 1.0, 1.0, 0.8 ],
                    "fontname": "Ableton Sans Medium",
                    "id": "obj-37",
                    "maxclass": "number",
                    "maximum": 253,
                    "minimum": 0,
                    "numinlets": 1,
                    "numoutlets": 2,
                    "outlettype": [ "", "bang" ],
                    "parameter_enable": 0,
                    "patching_rect": [ 111.0, 134.0, 53.0, 23.0 ],
                    "presentation": 1,
                    "presentation_rect": [ 2.0, 2.0, 40.0, 23.0 ],
                    "textcolor": [ 0.0, 0.0, 0.0, 1.0 ],
                    "triangle": 0,
                    "tricolor": [ 0.9764705882352941, 0.996078431372549, 1.0, 1.0 ]
                }
            },
            {
                "box": {
                    "comment": "",
                    "id": "obj-22",
                    "index": 0,
                    "maxclass": "inlet",
                    "numinlets": 0,
                    "numoutlets": 1,
                    "outlettype": [ "" ],
                    "patching_rect": [ 33.0, 21.0, 30.0, 30.0 ]
                }
            }
        ],
        "lines": [
            {
                "patchline": {
                    "destination": [ "obj-20", 0 ],
                    "source": [ "obj-2", 0 ]
                }
            },
            {
                "patchline": {
                    "destination": [ "obj-37", 0 ],
                    "source": [ "obj-20", 0 ]
                }
            },
            {
                "patchline": {
                    "destination": [ "obj-1", 0 ],
                    "order": 1,
                    "source": [ "obj-22", 0 ]
                }
            },
            {
                "patchline": {
                    "destination": [ "obj-2", 0 ],
                    "order": 0,
                    "source": [ "obj-22", 0 ]
                }
            },
            {
                "patchline": {
                    "destination": [ "obj-6", 0 ],
                    "source": [ "obj-3", 0 ]
                }
            },
            {
                "patchline": {
                    "destination": [ "obj-1", 0 ],
                    "source": [ "obj-37", 0 ]
                }
            },
            {
                "patchline": {
                    "destination": [ "obj-41", 0 ],
                    "source": [ "obj-6", 0 ]
                }
            }
        ],
        "autosave": 0,
        "toolbaradditions": [ "packagemanager" ],
        "toolbarexclusions": [ "mixerslider", "quickrecord", "showsnapshots", "showmappings" ]
    }
}